<svg id="svg" xmlns="http://www.w3.org/2000/svg" xmlns:xlink="http://www.w3.org/1999/xlink" width="400" height="400" viewBox="0, 0, 400,400"><g id="svgg"><path id="path0" d="M189.417 0.172 C 186.647 0.334,180.509 0.819,179.000 0.997 C 178.313 1.078,176.400 1.299,174.750 1.489 C 173.100 1.680,171.563 1.879,171.333 1.932 C 171.104 1.986,169.754 2.207,168.333 2.425 C 160.085 3.691,150.643 5.835,142.417 8.311 C 138.855 9.383,130.161 12.339,128.917 12.901 C 128.642 13.026,128.117 13.221,127.750 13.335 C 127.383 13.450,127.008 13.596,126.917 13.660 C 126.825 13.724,126.375 13.913,125.917 14.080 C 124.889 14.455,121.359 15.927,119.000 16.963 C 118.679 17.104,117.569 17.620,116.532 18.110 C 115.495 18.599,114.610 19.000,114.564 19.000 C 114.451 19.000,108.114 22.175,106.623 22.979 C 105.959 23.336,105.079 23.802,104.667 24.014 C 104.254 24.225,103.879 24.440,103.833 24.491 C 103.787 24.542,103.412 24.750,103.000 24.953 C 102.587 25.156,101.875 25.546,101.417 25.818 C 100.958 26.091,100.396 26.421,100.167 26.551 C 99.938 26.681,99.375 27.000,98.917 27.260 C 98.458 27.520,98.058 27.793,98.028 27.867 C 97.997 27.940,97.907 28.000,97.827 28.000 C 97.697 28.000,96.101 28.954,92.968 30.905 C 91.854 31.598,87.699 34.322,87.417 34.543 C 87.325 34.615,86.612 35.117,85.833 35.658 C 83.116 37.546,81.359 38.815,80.636 39.413 C 80.482 39.540,80.144 39.781,79.886 39.947 C 79.628 40.114,79.304 40.339,79.167 40.448 C 74.095 44.464,71.161 46.830,70.917 47.101 C 70.825 47.203,70.225 47.720,69.583 48.251 C 68.942 48.782,68.296 49.336,68.149 49.483 C 68.002 49.630,67.664 49.930,67.399 50.151 C 63.812 53.133,55.255 61.624,51.174 66.250 C 50.688 66.800,50.052 67.512,49.759 67.833 C 49.466 68.154,48.789 68.942,48.256 69.583 C 47.723 70.225,47.203 70.825,47.101 70.917 C 46.870 71.126,45.490 72.823,42.766 76.250 C 41.600 77.717,40.544 79.042,40.419 79.195 C 40.295 79.348,40.112 79.624,40.014 79.807 C 39.916 79.991,39.741 80.240,39.626 80.362 C 39.511 80.484,39.170 80.921,38.869 81.333 C 38.568 81.746,37.967 82.571,37.532 83.167 C 37.098 83.762,36.444 84.699,36.080 85.247 C 35.715 85.796,35.285 86.391,35.125 86.570 C 34.965 86.750,34.833 86.952,34.833 87.020 C 34.833 87.087,34.738 87.242,34.622 87.363 C 34.395 87.600,31.978 91.244,30.905 92.968 C 28.954 96.101,28.000 97.697,28.000 97.827 C 28.000 97.907,27.939 97.997,27.864 98.028 C 27.789 98.058,27.401 98.683,27.001 99.417 C 26.601 100.150,26.231 100.787,26.179 100.833 C 26.044 100.951,25.387 102.112,24.951 103.000 C 24.749 103.412,24.490 103.849,24.375 103.970 C 24.260 104.091,24.167 104.249,24.167 104.320 C 24.167 104.392,23.782 105.155,23.311 106.017 C 21.899 108.601,19.816 112.810,18.081 116.583 C 17.870 117.042,17.428 118.000,17.099 118.712 C 16.769 119.424,16.500 120.047,16.500 120.096 C 16.500 120.145,16.359 120.500,16.186 120.884 C 15.444 122.538,14.833 123.980,14.833 124.079 C 14.833 124.137,14.691 124.500,14.516 124.884 C 14.342 125.269,13.926 126.296,13.593 127.167 C 13.260 128.037,12.915 128.900,12.828 129.083 C 12.292 130.209,8.624 141.171,8.172 143.000 C 8.070 143.412,7.917 143.900,7.832 144.083 C 7.685 144.400,7.528 144.966,6.558 148.667 C 4.325 157.184,2.647 165.751,1.678 173.583 C 1.496 175.050,1.270 176.775,1.175 177.417 C 1.080 178.058,0.890 180.046,0.753 181.833 C 0.616 183.621,0.409 186.021,0.294 187.167 C 0.001 190.065,0.001 209.935,0.294 212.833 C 0.409 213.979,0.616 216.379,0.753 218.167 C 0.890 219.954,1.080 221.942,1.175 222.583 C 1.270 223.225,1.495 224.950,1.675 226.417 C 2.865 236.124,5.315 247.630,8.311 257.583 C 9.383 261.145,12.339 269.839,12.901 271.083 C 13.026 271.358,13.221 271.883,13.335 272.250 C 13.450 272.617,13.596 272.992,13.660 273.083 C 13.724 273.175,13.913 273.625,14.080 274.083 C 14.455 275.111,15.927 278.641,16.963 281.000 C 17.104 281.321,17.620 282.431,18.110 283.468 C 18.599 284.505,19.000 285.390,19.000 285.436 C 19.000 285.549,22.175 291.886,22.979 293.377 C 23.336 294.041,23.802 294.921,24.014 295.333 C 24.225 295.746,24.440 296.121,24.491 296.167 C 24.542 296.212,24.750 296.587,24.953 297.000 C 25.156 297.412,25.546 298.125,25.818 298.583 C 26.091 299.042,26.421 299.604,26.551 299.833 C 26.681 300.063,27.000 300.625,27.260 301.083 C 27.520 301.542,27.793 301.942,27.867 301.972 C 27.940 302.003,28.000 302.093,28.000 302.173 C 28.000 302.303,28.954 303.899,30.905 307.032 C 31.598 308.146,34.322 312.301,34.543 312.583 C 34.615 312.675,35.117 313.387,35.658 314.167 C 37.546 316.884,38.815 318.641,39.413 319.364 C 39.540 319.518,39.781 319.856,39.947 320.114 C 40.114 320.372,40.339 320.696,40.448 320.833 C 44.464 325.905,46.830 328.839,47.101 329.083 C 47.203 329.175,47.720 329.775,48.251 330.417 C 48.782 331.058,49.336 331.704,49.483 331.851 C 49.630 331.998,49.930 332.336,50.151 332.601 C 53.133 336.188,61.624 344.745,66.250 348.826 C 66.800 349.312,67.512 349.948,67.833 350.241 C 68.154 350.534,68.942 351.211,69.583 351.744 C 70.225 352.277,70.825 352.797,70.917 352.899 C 71.126 353.130,72.823 354.510,76.250 357.234 C 77.717 358.400,79.042 359.456,79.195 359.581 C 79.348 359.705,79.624 359.888,79.807 359.986 C 79.991 360.084,80.240 360.259,80.362 360.374 C 80.484 360.489,80.921 360.830,81.333 361.131 C 81.746 361.432,82.571 362.033,83.167 362.468 C 83.762 362.902,84.699 363.556,85.247 363.920 C 85.796 364.285,86.391 364.715,86.570 364.875 C 86.750 365.035,86.952 365.167,87.020 365.167 C 87.087 365.167,87.242 365.262,87.363 365.378 C 87.600 365.605,91.244 368.022,92.968 369.095 C 96.101 371.046,97.697 372.000,97.827 372.000 C 97.907 372.000,97.997 372.061,98.028 372.136 C 98.058 372.211,98.683 372.599,99.417 372.999 C 100.150 373.399,100.787 373.769,100.833 373.821 C 100.951 373.956,102.112 374.613,103.000 375.049 C 103.412 375.251,103.849 375.510,103.970 375.625 C 104.091 375.740,104.249 375.833,104.320 375.833 C 104.392 375.833,105.155 376.218,106.017 376.689 C 108.601 378.101,112.810 380.184,116.583 381.919 C 117.042 382.130,118.000 382.572,118.712 382.901 C 119.424 383.231,120.047 383.500,120.096 383.500 C 120.145 383.500,120.500 383.641,120.884 383.814 C 122.538 384.556,123.980 385.167,124.079 385.167 C 124.137 385.167,124.500 385.309,124.884 385.484 C 125.269 385.658,126.296 386.074,127.167 386.407 C 128.037 386.740,128.900 387.085,129.083 387.172 C 130.209 387.708,141.171 391.376,143.000 391.828 C 143.412 391.930,143.900 392.083,144.083 392.168 C 144.400 392.315,144.966 392.472,148.667 393.442 C 157.216 395.684,165.721 397.349,173.583 398.322 C 175.050 398.504,176.775 398.730,177.417 398.825 C 178.058 398.920,180.083 399.112,181.917 399.250 C 183.750 399.388,185.963 399.583,186.833 399.683 C 189.102 399.942,206.069 400.069,209.917 399.856 C 213.383 399.663,221.120 399.061,221.918 398.921 C 222.193 398.873,223.918 398.646,225.751 398.417 C 235.079 397.253,243.863 395.488,253.917 392.757 C 255.743 392.261,263.308 389.928,263.917 389.673 C 264.100 389.596,265.712 389.026,267.500 388.406 C 269.287 387.785,270.825 387.225,270.917 387.161 C 271.008 387.097,271.496 386.912,272.000 386.750 C 272.504 386.588,272.992 386.400,273.083 386.332 C 273.175 386.263,273.438 386.153,273.667 386.086 C 274.439 385.860,280.756 383.183,282.917 382.166 C 283.467 381.908,284.442 381.455,285.083 381.161 C 286.700 380.420,291.347 378.102,293.750 376.839 C 297.154 375.049,299.180 373.896,303.040 371.551 C 303.841 371.065,304.572 370.667,304.665 370.667 C 304.758 370.667,304.833 370.604,304.833 370.527 C 304.833 370.450,305.015 370.304,305.236 370.203 C 305.750 369.969,312.252 365.760,312.500 365.501 C 312.546 365.453,313.108 365.060,313.750 364.627 C 314.392 364.195,315.308 363.558,315.787 363.212 C 316.265 362.866,316.978 362.358,317.370 362.083 C 317.762 361.808,318.583 361.208,319.194 360.750 C 319.805 360.292,320.514 359.767,320.770 359.583 C 321.781 358.858,328.428 353.524,328.982 352.993 C 329.129 352.852,329.737 352.330,330.333 351.832 C 331.459 350.893,331.650 350.726,333.583 348.990 C 339.899 343.322,347.087 335.976,351.833 330.341 C 352.246 329.851,352.681 329.351,352.800 329.229 C 353.020 329.004,354.333 327.415,355.250 326.265 C 357.580 323.342,360.068 320.144,360.798 319.135 C 361.282 318.465,362.070 317.380,362.548 316.725 C 363.026 316.070,363.509 315.395,363.622 315.225 C 363.735 315.055,364.226 314.354,364.712 313.667 C 367.114 310.269,371.763 302.926,373.351 300.019 C 373.570 299.617,373.825 299.167,373.917 299.019 C 374.387 298.260,375.833 295.699,375.833 295.626 C 375.833 295.579,376.303 294.688,376.877 293.646 C 377.958 291.682,380.245 287.119,381.170 285.083 C 381.462 284.442,381.924 283.429,382.197 282.833 C 383.624 279.726,384.000 278.877,384.000 278.763 C 384.000 278.715,384.225 278.184,384.500 277.583 C 384.775 276.983,385.000 276.449,385.000 276.396 C 385.000 276.343,385.109 276.064,385.243 275.775 C 385.732 274.720,387.656 269.685,388.500 267.250 C 388.978 265.875,389.430 264.600,389.505 264.417 C 389.581 264.233,389.766 263.671,389.917 263.167 C 390.067 262.662,390.255 262.100,390.333 261.917 C 390.511 261.500,391.668 257.701,392.820 253.750 C 393.007 253.108,393.271 252.133,393.408 251.583 C 393.544 251.033,393.846 249.833,394.079 248.917 C 396.510 239.339,398.382 228.309,399.255 218.417 C 399.400 216.767,399.606 214.442,399.711 213.250 C 399.970 210.327,399.971 189.874,399.712 186.833 C 399.012 178.619,398.930 177.830,398.258 172.833 C 397.076 164.052,394.877 153.302,392.820 146.250 C 391.657 142.264,390.511 138.499,390.333 138.083 C 390.255 137.900,390.067 137.337,389.917 136.833 C 389.766 136.329,389.581 135.767,389.505 135.583 C 389.430 135.400,388.977 134.125,388.500 132.750 C 388.022 131.375,387.371 129.575,387.054 128.750 C 386.289 126.765,384.864 123.211,384.581 122.583 C 384.457 122.308,383.907 121.033,383.359 119.750 C 382.811 118.467,382.176 117.042,381.949 116.583 C 381.722 116.125,381.370 115.375,381.167 114.917 C 380.696 113.849,377.503 107.456,376.863 106.298 C 376.596 105.813,376.017 104.742,375.578 103.917 C 374.805 102.465,374.310 101.591,373.874 100.910 C 373.759 100.730,373.613 100.471,373.551 100.333 C 372.897 98.892,367.101 89.712,364.712 86.333 C 364.226 85.646,363.735 84.942,363.622 84.768 C 363.445 84.497,362.674 83.424,361.963 82.460 C 361.846 82.301,361.337 81.603,360.833 80.909 C 360.074 79.863,357.563 76.637,355.250 73.735 C 354.333 72.585,353.020 70.996,352.800 70.771 C 352.681 70.649,352.246 70.148,351.833 69.657 C 350.470 68.035,347.574 64.822,345.168 62.262 C 342.238 59.145,336.964 54.022,333.667 51.091 C 333.071 50.561,332.321 49.890,332.000 49.600 C 331.679 49.310,330.929 48.666,330.333 48.168 C 329.737 47.671,329.129 47.148,328.982 47.007 C 328.434 46.481,321.842 41.193,320.767 40.417 C 320.513 40.233,319.881 39.757,319.361 39.357 C 318.842 38.958,318.042 38.374,317.583 38.059 C 317.125 37.744,316.337 37.188,315.833 36.823 C 315.329 36.458,314.392 35.805,313.750 35.373 C 313.108 34.940,312.546 34.546,312.500 34.497 C 312.414 34.405,309.451 32.445,307.417 31.134 C 304.714 29.393,299.557 26.333,299.323 26.333 C 299.252 26.333,299.169 26.273,299.139 26.198 C 299.003 25.868,290.664 21.489,285.667 19.125 C 282.738 17.739,280.017 16.500,279.903 16.500 C 279.855 16.500,279.500 16.359,279.116 16.186 C 277.308 15.375,276.015 14.833,275.886 14.833 C 275.809 14.833,275.484 14.694,275.164 14.525 C 274.845 14.355,274.283 14.120,273.917 14.003 C 273.550 13.886,273.175 13.734,273.083 13.667 C 272.992 13.599,272.617 13.450,272.250 13.335 C 271.883 13.221,271.358 13.026,271.083 12.901 C 269.556 12.211,259.005 8.668,257.000 8.172 C 256.587 8.070,256.100 7.917,255.917 7.832 C 255.600 7.685,255.034 7.528,251.333 6.558 C 241.307 3.929,232.154 2.249,221.083 1.005 C 219.292 0.804,213.701 0.367,210.333 0.165 C 207.519 -0.004,192.348 0.001,189.417 0.172 M209.184 11.336 C 310.010 16.367,388.833 99.146,388.833 200.000 C 388.833 313.969,288.925 401.802,175.750 387.328 C 78.324 374.868,6.440 288.950,11.336 190.816 C 16.538 86.558,105.179 6.147,209.184 11.336 M246.877 165.512 C 236.265 166.791,229.880 181.672,230.682 203.250 C 231.478 224.654,240.553 237.428,252.250 233.610 C 261.119 230.715,266.406 218.137,266.412 199.917 C 266.419 177.776,258.649 164.093,246.877 165.512 M94.167 199.838 L 94.167 233.365 100.125 233.291 C 107.762 233.197,110.094 232.792,113.833 230.915 C 126.495 224.557,127.067 204.539,114.772 198.083 C 113.258 197.288,113.276 197.362,114.407 196.612 C 125.344 189.350,124.345 173.823,112.571 168.068 C 109.470 166.552,108.726 166.444,100.958 166.372 L 94.167 166.310 94.167 199.838 M132.333 192.567 C 132.333 223.225,132.252 221.859,134.329 226.000 C 140.488 238.277,157.669 236.315,161.385 222.910 C 162.168 220.088,162.165 220.204,162.166 192.458 L 162.167 166.333 157.922 166.333 L 153.677 166.333 153.628 192.875 L 153.578 219.417 153.217 220.692 C 152.133 224.515,150.094 226.282,146.937 226.133 C 144.485 226.017,143.017 225.024,142.010 222.801 C 140.970 220.503,141.000 221.409,141.000 192.562 L 141.000 166.333 136.667 166.333 L 132.333 166.333 132.333 192.567 M168.667 170.333 L 168.667 174.333 173.833 174.333 L 179.000 174.333 179.000 203.833 L 179.000 233.333 183.333 233.333 L 187.667 233.333 187.667 203.833 L 187.667 174.333 192.833 174.333 L 198.000 174.333 198.000 170.333 L 198.000 166.333 183.333 166.333 L 168.667 166.333 168.667 170.333 M200.167 170.333 L 200.167 174.333 205.333 174.333 L 210.500 174.333 210.500 203.833 L 210.500 233.333 214.833 233.333 L 219.167 233.333 219.167 203.836 L 219.167 174.338 224.292 174.294 L 229.417 174.250 229.461 170.292 L 229.506 166.333 214.836 166.333 L 200.167 166.333 200.167 170.333 M275.833 199.830 L 275.833 233.333 279.833 233.333 L 283.832 233.333 283.874 212.383 L 283.917 191.432 284.945 194.341 C 286.147 197.738,293.901 219.560,296.788 227.667 L 298.776 233.250 302.305 233.295 L 305.833 233.340 305.833 199.837 L 305.833 166.333 301.833 166.333 L 297.833 166.333 297.828 187.042 C 297.825 199.009,297.761 207.644,297.677 207.500 C 297.596 207.362,296.212 203.575,294.601 199.083 C 292.989 194.592,289.692 185.404,287.273 178.667 L 282.875 166.417 279.354 166.372 L 275.833 166.327 275.833 199.830 M250.620 173.938 C 255.027 176.038,257.416 185.110,257.416 199.750 C 257.416 216.658,254.238 226.173,248.592 226.165 C 244.007 226.159,241.256 220.739,239.965 209.167 C 239.669 206.518,239.672 193.302,239.968 190.583 C 241.424 177.229,245.186 171.351,250.620 173.938 M106.978 174.737 C 111.145 175.869,113.380 179.185,113.392 184.250 C 113.406 190.468,109.649 194.653,104.042 194.664 L 102.833 194.667 102.833 184.475 L 102.833 174.283 104.458 174.389 C 105.352 174.447,106.486 174.604,106.978 174.737 M107.461 203.067 C 112.686 204.483,115.691 209.850,114.844 216.250 C 114.095 221.916,110.707 224.959,104.792 225.278 L 102.833 225.384 102.833 214.000 L 102.833 202.616 104.708 202.722 C 105.740 202.781,106.978 202.936,107.461 203.067 " stroke="none" fill="#fbfbfb" fill-rule="evenodd"></path><path id="path1" d="M190.167 11.352 C 80.530 17.144,-1.133 114.826,12.600 223.750 C 24.908 321.374,110.692 393.444,208.917 388.683 C 316.215 383.481,397.590 290.291,388.158 183.417 C 379.223 82.176,291.564 5.996,190.167 11.352 M251.774 165.843 C 260.777 168.122,266.418 181.253,266.412 199.917 C 266.406 218.137,261.119 230.715,252.250 233.610 C 240.553 237.428,231.478 224.654,230.682 203.250 C 229.749 178.174,238.585 162.504,251.774 165.843 M109.405 166.882 C 123.589 170.715,126.585 188.526,114.407 196.612 C 113.276 197.362,113.258 197.288,114.772 198.083 C 127.067 204.539,126.495 224.557,113.833 230.915 C 110.094 232.792,107.762 233.197,100.125 233.291 L 94.167 233.365 94.167 199.838 L 94.167 166.310 100.958 166.372 C 107.711 166.434,107.760 166.437,109.405 166.882 M141.000 192.562 C 141.000 221.409,140.970 220.503,142.010 222.801 C 143.017 225.024,144.485 226.017,146.937 226.133 C 150.094 226.282,152.133 224.515,153.217 220.692 L 153.578 219.417 153.628 192.875 L 153.677 166.333 157.922 166.333 L 162.167 166.333 162.166 192.458 C 162.165 220.204,162.168 220.088,161.385 222.910 C 157.669 236.315,140.488 238.277,134.329 226.000 C 132.252 221.859,132.333 223.225,132.333 192.567 L 132.333 166.333 136.667 166.333 L 141.000 166.333 141.000 192.562 M198.000 170.333 L 198.000 174.333 192.833 174.333 L 187.667 174.333 187.667 203.833 L 187.667 233.333 183.333 233.333 L 179.000 233.333 179.000 203.833 L 179.000 174.333 173.833 174.333 L 168.667 174.333 168.667 170.333 L 168.667 166.333 183.333 166.333 L 198.000 166.333 198.000 170.333 M229.461 170.292 L 229.417 174.250 224.292 174.294 L 219.167 174.338 219.167 203.836 L 219.167 233.333 214.833 233.333 L 210.500 233.333 210.500 203.833 L 210.500 174.333 205.333 174.333 L 200.167 174.333 200.167 170.333 L 200.167 166.333 214.836 166.333 L 229.506 166.333 229.461 170.292 M287.273 178.667 C 289.692 185.404,292.989 194.592,294.601 199.083 C 296.212 203.575,297.596 207.362,297.677 207.500 C 297.761 207.644,297.825 199.009,297.828 187.042 L 297.833 166.333 301.833 166.333 L 305.833 166.333 305.833 199.837 L 305.833 233.340 302.305 233.295 L 298.776 233.250 296.788 227.667 C 293.901 219.560,286.147 197.738,284.945 194.341 L 283.917 191.432 283.874 212.383 L 283.832 233.333 279.833 233.333 L 275.833 233.333 275.833 199.830 L 275.833 166.327 279.354 166.372 L 282.875 166.417 287.273 178.667 M247.193 173.590 C 243.410 174.629,241.121 180.013,239.968 190.583 C 239.672 193.302,239.669 206.518,239.965 209.167 C 241.256 220.739,244.007 226.159,248.592 226.165 C 254.238 226.173,257.416 216.658,257.416 199.750 C 257.416 181.625,253.590 171.833,247.193 173.590 M102.833 184.475 L 102.833 194.667 104.042 194.664 C 109.649 194.653,113.406 190.468,113.392 184.250 C 113.378 178.161,110.304 174.768,104.458 174.389 L 102.833 174.283 102.833 184.475 M102.833 214.000 L 102.833 225.384 104.792 225.278 C 111.666 224.907,115.449 220.421,114.935 213.250 C 114.471 206.766,110.883 203.073,104.708 202.722 L 102.833 202.616 102.833 214.000 " stroke="none" fill="#040404" fill-rule="evenodd"></path></g></svg>