<svg id="svg" xmlns="http://www.w3.org/2000/svg" xmlns:xlink="http://www.w3.org/1999/xlink" width="400" height="164.9175412293853" viewBox="0, 0, 400,164.9175412293853"><g id="svgg"><path id="path0" d="M68.128 48.297 C 41.637 51.738,28.648 83.175,44.825 104.696 C 60.454 125.488,92.964 122.443,104.570 99.100 C 117.186 73.723,96.322 44.635,68.128 48.297 M76.362 50.995 C 99.397 53.564,112.581 78.700,101.483 98.891 C 87.761 123.855,50.743 120.253,42.001 93.103 C 34.898 71.043,53.351 48.429,76.362 50.995 M208.366 62.966 C 199.883 67.449,199.975 94.202,208.487 98.323 C 210.204 99.153,213.074 99.177,214.650 98.373 C 223.531 93.842,223.498 67.088,214.607 62.869 C 213.124 62.166,209.782 62.217,208.366 62.966 M129.835 80.688 L 129.835 98.407 134.108 98.302 C 142.028 98.108,145.581 94.960,145.564 88.156 C 145.554 84.237,142.983 79.460,140.884 79.460 C 140.729 79.460,141.329 78.751,142.217 77.884 C 146.639 73.567,145.313 66.342,139.611 63.687 C 138.235 63.046,137.666 62.974,133.958 62.971 L 129.835 62.969 129.835 80.688 M149.925 77.047 C 149.925 92.364,150.007 93.317,151.525 95.573 C 154.542 100.057,161.303 100.220,164.253 95.881 C 165.977 93.345,165.943 93.691,166.050 77.736 L 166.148 62.969 163.734 62.969 L 161.319 62.969 161.312 76.537 C 161.303 93.070,161.055 94.453,158.095 94.453 C 154.893 94.453,154.888 94.426,154.784 77.436 L 154.696 62.969 152.310 62.969 L 149.925 62.969 149.925 77.047 M169.115 65.067 L 169.115 67.166 171.814 67.166 L 174.513 67.166 174.513 82.759 L 174.513 98.351 177.061 98.351 L 179.610 98.351 179.610 82.759 L 179.610 67.166 182.309 67.166 L 185.007 67.166 185.007 65.067 L 185.007 62.969 177.061 62.969 L 169.115 62.969 169.115 65.067 M185.907 65.067 L 185.907 67.166 188.606 67.166 L 191.304 67.166 191.304 82.759 L 191.304 98.351 193.853 98.351 L 196.402 98.351 196.402 82.759 L 196.402 67.166 199.100 67.166 L 201.799 67.166 201.799 65.067 L 201.799 62.969 193.853 62.969 L 185.907 62.969 185.907 65.067 M225.787 80.660 L 225.787 98.351 228.036 98.351 L 230.285 98.351 230.300 87.781 L 230.315 77.211 234.095 87.781 L 237.876 98.351 239.927 98.351 L 241.979 98.351 241.979 80.660 L 241.979 62.969 239.734 62.969 L 237.489 62.969 237.410 73.438 L 237.331 83.908 233.583 73.438 L 229.835 62.969 227.811 62.969 L 225.787 62.969 225.787 80.660 M257.643 63.331 C 257.723 63.544,259.453 71.645,261.487 81.334 L 265.185 98.951 266.905 98.951 C 268.285 98.951,268.656 98.847,268.779 98.426 C 268.864 98.137,269.822 93.313,270.909 87.706 C 271.996 82.099,272.984 77.203,273.103 76.826 C 273.251 76.360,273.982 79.474,275.391 86.571 C 278.138 100.403,277.633 98.951,279.699 98.950 L 281.409 98.950 284.080 86.281 C 285.549 79.314,287.254 71.218,287.868 68.291 L 288.985 62.969 286.396 62.969 L 283.807 62.969 281.722 74.516 C 280.575 80.866,279.547 85.893,279.436 85.685 C 279.326 85.477,278.313 80.281,277.185 74.138 L 275.134 62.969 273.292 62.969 L 271.451 62.969 269.265 73.988 C 268.063 80.049,266.991 85.109,266.882 85.234 C 266.773 85.359,265.808 80.434,264.738 74.289 L 262.792 63.118 260.145 63.031 C 258.080 62.963,257.530 63.029,257.643 63.331 M307.346 80.660 L 307.346 98.351 309.595 98.351 L 311.844 98.351 311.844 80.660 L 311.844 62.969 309.595 62.969 L 307.346 62.969 307.346 80.660 M316.342 80.660 L 316.342 98.351 318.591 98.351 L 320.840 98.351 320.840 80.660 L 320.840 62.969 318.591 62.969 L 316.342 62.969 316.342 80.660 M213.501 67.775 C 217.127 71.656,217.127 89.663,213.501 93.545 C 210.054 97.235,207.196 91.437,207.196 80.753 C 207.196 69.886,210.028 64.057,213.501 67.775 M138.092 68.251 C 141.594 70.546,139.739 77.661,135.638 77.661 L 134.633 77.661 134.633 72.453 L 134.633 67.244 135.977 67.495 C 136.717 67.633,137.668 67.973,138.092 68.251 M346.062 70.166 C 345.691 70.826,344.250 72.925,342.859 74.831 C 339.888 78.901,339.998 78.561,341.659 78.561 L 342.988 78.561 343.083 87.331 C 343.209 98.940,344.112 100.353,350.300 98.635 L 351.424 98.323 351.424 96.404 L 351.424 94.486 349.720 94.544 C 347.519 94.620,347.593 94.919,347.556 85.832 L 347.526 78.561 349.475 78.561 L 351.424 78.561 351.424 76.762 L 351.424 74.963 349.475 74.963 L 347.526 74.963 347.526 71.964 C 347.526 68.560,347.194 68.152,346.062 70.166 M292.804 75.020 C 289.839 76.578,289.655 76.848,289.655 79.646 C 289.655 82.443,289.762 82.566,291.023 81.219 C 294.645 77.354,298.051 77.692,298.051 81.918 L 298.051 83.515 295.579 84.996 C 290.646 87.952,288.763 90.576,289.160 93.939 C 289.725 98.726,294.004 100.545,297.322 97.409 L 298.242 96.539 298.972 97.670 C 300.711 100.364,304.648 98.953,304.648 95.637 C 304.648 93.827,304.422 93.491,303.748 94.303 C 302.651 95.624,302.549 95.016,302.547 87.181 C 302.545 79.121,302.390 77.932,301.150 76.458 C 299.360 74.330,295.410 73.650,292.804 75.020 M328.322 75.078 C 323.548 78.322,323.331 93.315,327.996 97.530 C 329.978 99.320,333.682 99.499,336.057 97.919 L 337.331 97.072 337.331 94.863 C 337.331 92.518,337.166 92.276,336.254 93.284 C 333.209 96.649,329.797 94.673,329.082 89.130 L 328.879 87.556 333.300 87.556 L 337.720 87.556 337.543 84.183 C 337.279 79.130,336.296 76.554,334.056 75.045 C 332.603 74.065,329.788 74.082,328.322 75.078 M81.185 75.856 C 78.637 77.860,78.491 86.033,80.958 88.500 C 83.520 91.062,86.315 88.427,86.590 83.191 C 86.901 77.266,84.146 73.527,81.185 75.856 M51.574 82.309 L 51.574 89.055 53.238 89.055 C 55.220 89.055,56.495 88.467,57.116 87.266 C 58.000 85.557,57.461 82.526,56.185 82.036 C 55.739 81.865,55.774 81.740,56.474 81.009 C 58.593 78.798,56.769 75.562,53.403 75.562 L 51.574 75.562 51.574 82.309 M59.123 81.584 L 59.220 87.606 60.200 88.481 C 61.567 89.702,63.268 89.701,64.491 88.479 L 65.367 87.602 65.367 81.582 L 65.367 75.562 64.468 75.562 L 63.568 75.562 63.564 80.885 C 63.559 87.141,63.069 88.813,61.654 87.398 C 61.242 86.986,61.169 86.064,61.169 81.238 L 61.169 75.562 60.097 75.562 L 59.025 75.562 59.123 81.584 M66.267 76.312 C 66.267 76.969,66.397 77.061,67.316 77.061 L 68.366 77.061 68.366 83.058 L 68.366 89.055 69.415 89.055 L 70.465 89.055 70.465 83.058 L 70.465 77.061 71.514 77.061 C 72.434 77.061,72.564 76.969,72.564 76.312 L 72.564 75.562 69.415 75.562 L 66.267 75.562 66.267 76.312 M72.864 76.312 C 72.864 76.969,72.994 77.061,73.913 77.061 L 74.963 77.061 74.963 83.058 L 74.963 89.055 76.012 89.055 L 77.061 89.055 77.061 83.058 L 77.061 77.061 78.111 77.061 C 79.030 77.061,79.160 76.969,79.160 76.312 L 79.160 75.562 76.012 75.562 L 72.864 75.562 72.864 76.312 M88.456 82.289 L 88.456 89.055 89.355 89.055 L 90.255 89.055 90.269 85.382 L 90.284 81.709 91.166 84.108 C 93.111 89.397,92.924 89.055,93.878 89.055 L 94.753 89.055 94.753 82.309 L 94.753 75.562 93.862 75.562 L 92.971 75.562 92.888 79.385 L 92.804 83.208 91.454 79.460 C 90.203 75.984,90.045 75.705,89.280 75.617 L 88.456 75.522 88.456 82.289 M83.967 77.903 C 84.926 79.890,84.606 86.266,83.492 87.380 C 82.343 88.529,81.504 86.854,81.328 83.058 C 81.097 78.086,82.620 75.111,83.967 77.903 M54.589 77.614 C 55.814 78.606,55.123 81.259,53.640 81.259 C 53.493 81.259,53.373 80.315,53.373 79.160 C 53.373 76.924,53.515 76.744,54.589 77.614 M332.516 79.535 C 332.817 80.236,333.134 81.653,333.220 82.684 L 333.376 84.558 331.156 84.558 L 328.936 84.558 328.936 83.699 C 328.936 79.167,331.217 76.514,332.516 79.535 M137.990 82.950 C 141.297 84.617,141.774 90.281,138.818 92.768 C 137.908 93.534,137.627 93.640,135.607 93.976 L 134.633 94.138 134.633 88.177 L 134.633 82.216 135.907 82.379 C 136.608 82.468,137.545 82.725,137.990 82.950 M54.561 83.052 C 55.807 83.719,55.939 86.295,54.769 87.115 C 53.553 87.967,53.373 87.716,53.373 85.157 C 53.373 82.704,53.498 82.483,54.561 83.052 M298.051 89.795 C 298.051 93.846,295.645 96.407,294.020 94.086 C 292.812 92.362,295.653 87.248,297.976 86.966 C 298.017 86.961,298.051 88.234,298.051 89.795 " stroke="none" fill="#000000" fill-rule="evenodd"></path></g></svg>